<mxfile host="app.diagrams.net" modified="2024-05-16T08:01:25.423Z" agent="Mozilla/5.0 (Windows NT 10.0; Win64; x64) AppleWebKit/537.36 (KHTML, like Gecko) Chrome/123.0.0.0 Safari/537.36" etag="7W_pIcN984O4fxhomfoY" version="24.4.2" type="github">
  <diagram id="C5RBs43oDa-KdzZeNtuy" name="Page-1">
    <mxGraphModel dx="2035" dy="2229" grid="1" gridSize="10" guides="1" tooltips="1" connect="1" arrows="1" fold="1" page="1" pageScale="1" pageWidth="827" pageHeight="1169" math="0" shadow="0">
      <root>
        <mxCell id="WIyWlLk6GJQsqaUBKTNV-0" />
        <mxCell id="WIyWlLk6GJQsqaUBKTNV-1" parent="WIyWlLk6GJQsqaUBKTNV-0" />
        <mxCell id="rb9BaqX8tFNNaCbTfsH7-52" style="edgeStyle=orthogonalEdgeStyle;rounded=0;orthogonalLoop=1;jettySize=auto;html=1;exitX=0.25;exitY=1;exitDx=0;exitDy=0;entryX=0;entryY=0.75;entryDx=0;entryDy=0;" edge="1" parent="WIyWlLk6GJQsqaUBKTNV-1" source="rb9BaqX8tFNNaCbTfsH7-0" target="rb9BaqX8tFNNaCbTfsH7-16">
          <mxGeometry relative="1" as="geometry" />
        </mxCell>
        <mxCell id="rb9BaqX8tFNNaCbTfsH7-0" value="Service.DdReport" style="rounded=0;whiteSpace=wrap;html=1;" vertex="1" parent="WIyWlLk6GJQsqaUBKTNV-1">
          <mxGeometry x="55" y="253" width="120" height="50" as="geometry" />
        </mxCell>
        <mxCell id="rb9BaqX8tFNNaCbTfsH7-1" value="Service.WellConfig" style="rounded=0;whiteSpace=wrap;html=1;" vertex="1" parent="WIyWlLk6GJQsqaUBKTNV-1">
          <mxGeometry x="561" y="-60" width="239" height="160" as="geometry" />
        </mxCell>
        <mxCell id="rb9BaqX8tFNNaCbTfsH7-2" value="Service.Package" style="rounded=0;whiteSpace=wrap;html=1;" vertex="1" parent="WIyWlLk6GJQsqaUBKTNV-1">
          <mxGeometry x="560" y="122" width="240" height="60" as="geometry" />
        </mxCell>
        <mxCell id="rb9BaqX8tFNNaCbTfsH7-3" value="" style="endArrow=classic;html=1;rounded=0;exitX=1;exitY=0.5;exitDx=0;exitDy=0;entryX=0;entryY=0.5;entryDx=0;entryDy=0;" edge="1" parent="WIyWlLk6GJQsqaUBKTNV-1" source="rb9BaqX8tFNNaCbTfsH7-0" target="rb9BaqX8tFNNaCbTfsH7-2">
          <mxGeometry width="50" height="50" relative="1" as="geometry">
            <mxPoint x="390" y="350" as="sourcePoint" />
            <mxPoint x="360" y="250" as="targetPoint" />
            <Array as="points">
              <mxPoint x="360" y="280" />
              <mxPoint x="400" y="280" />
              <mxPoint x="400" y="150" />
            </Array>
          </mxGeometry>
        </mxCell>
        <mxCell id="rb9BaqX8tFNNaCbTfsH7-4" value="" style="endArrow=classic;html=1;rounded=0;exitX=1;exitY=0.5;exitDx=0;exitDy=0;" edge="1" parent="WIyWlLk6GJQsqaUBKTNV-1" source="rb9BaqX8tFNNaCbTfsH7-0">
          <mxGeometry width="50" height="50" relative="1" as="geometry">
            <mxPoint x="260" y="255" as="sourcePoint" />
            <mxPoint x="560" y="40" as="targetPoint" />
            <Array as="points">
              <mxPoint x="400" y="280" />
              <mxPoint x="400" y="40" />
            </Array>
          </mxGeometry>
        </mxCell>
        <mxCell id="rb9BaqX8tFNNaCbTfsH7-5" value="Text" style="edgeLabel;html=1;align=center;verticalAlign=middle;resizable=0;points=[];" vertex="1" connectable="0" parent="rb9BaqX8tFNNaCbTfsH7-4">
          <mxGeometry x="-0.9099" y="-2" relative="1" as="geometry">
            <mxPoint as="offset" />
          </mxGeometry>
        </mxCell>
        <mxCell id="rb9BaqX8tFNNaCbTfsH7-6" value="Text" style="edgeLabel;html=1;align=center;verticalAlign=middle;resizable=0;points=[];" vertex="1" connectable="0" parent="rb9BaqX8tFNNaCbTfsH7-4">
          <mxGeometry x="-0.8184" y="-3" relative="1" as="geometry">
            <mxPoint as="offset" />
          </mxGeometry>
        </mxCell>
        <mxCell id="rb9BaqX8tFNNaCbTfsH7-7" value="anticollision/preview" style="edgeLabel;html=1;align=center;verticalAlign=middle;resizable=0;points=[];" vertex="1" connectable="0" parent="rb9BaqX8tFNNaCbTfsH7-4">
          <mxGeometry x="-0.81" y="-4" relative="1" as="geometry">
            <mxPoint as="offset" />
          </mxGeometry>
        </mxCell>
        <mxCell id="rb9BaqX8tFNNaCbTfsH7-8" value="/wellinfos?wellId={wellId}" style="rounded=0;whiteSpace=wrap;html=1;" vertex="1" parent="WIyWlLk6GJQsqaUBKTNV-1">
          <mxGeometry x="605.5" y="30" width="174.5" height="18" as="geometry" />
        </mxCell>
        <mxCell id="rb9BaqX8tFNNaCbTfsH7-9" value="/runsummaries?wellId={wellId}" style="rounded=0;whiteSpace=wrap;html=1;" vertex="1" parent="WIyWlLk6GJQsqaUBKTNV-1">
          <mxGeometry x="605.5" y="60" width="170" height="20" as="geometry" />
        </mxCell>
        <mxCell id="rb9BaqX8tFNNaCbTfsH7-10" value="" style="rounded=0;whiteSpace=wrap;html=1;" vertex="1" parent="WIyWlLk6GJQsqaUBKTNV-1">
          <mxGeometry x="700" y="590" width="239" height="230" as="geometry" />
        </mxCell>
        <mxCell id="rb9BaqX8tFNNaCbTfsH7-11" value="/recommendations?wellId={wellId}" style="rounded=0;whiteSpace=wrap;html=1;" vertex="1" parent="WIyWlLk6GJQsqaUBKTNV-1">
          <mxGeometry x="725" y="670" width="190" height="10" as="geometry" />
        </mxCell>
        <mxCell id="rb9BaqX8tFNNaCbTfsH7-12" value="/steeringCommands?wellId={wellId}" style="rounded=0;whiteSpace=wrap;html=1;" vertex="1" parent="WIyWlLk6GJQsqaUBKTNV-1">
          <mxGeometry x="727.5" y="695" width="194" height="20" as="geometry" />
        </mxCell>
        <mxCell id="rb9BaqX8tFNNaCbTfsH7-13" value="" style="endArrow=classic;html=1;rounded=0;" edge="1" parent="WIyWlLk6GJQsqaUBKTNV-1">
          <mxGeometry width="50" height="50" relative="1" as="geometry">
            <mxPoint x="400" y="280" as="sourcePoint" />
            <mxPoint x="560" y="320" as="targetPoint" />
            <Array as="points">
              <mxPoint x="400" y="320" />
            </Array>
          </mxGeometry>
        </mxCell>
        <mxCell id="rb9BaqX8tFNNaCbTfsH7-14" value="Core.Service.Trajectory-2" style="rounded=0;whiteSpace=wrap;html=1;" vertex="1" parent="WIyWlLk6GJQsqaUBKTNV-1">
          <mxGeometry x="980" y="565" width="290" height="125" as="geometry" />
        </mxCell>
        <mxCell id="rb9BaqX8tFNNaCbTfsH7-15" value="/graphql&lt;div&gt;query TrajectoryQuery&lt;/div&gt;" style="rounded=0;whiteSpace=wrap;html=1;" vertex="1" parent="WIyWlLk6GJQsqaUBKTNV-1">
          <mxGeometry x="1035" y="640" width="190" height="45" as="geometry" />
        </mxCell>
        <mxCell id="rb9BaqX8tFNNaCbTfsH7-16" value="" style="rounded=0;whiteSpace=wrap;html=1;" vertex="1" parent="WIyWlLk6GJQsqaUBKTNV-1">
          <mxGeometry x="160" y="523" width="160" height="217" as="geometry" />
        </mxCell>
        <mxCell id="rb9BaqX8tFNNaCbTfsH7-18" value="/tempembeddedfiles?settingId={settingId}" style="rounded=0;whiteSpace=wrap;html=1;" vertex="1" parent="WIyWlLk6GJQsqaUBKTNV-1">
          <mxGeometry x="172" y="586" width="138" height="54" as="geometry" />
        </mxCell>
        <mxCell id="rb9BaqX8tFNNaCbTfsH7-19" value="/files" style="rounded=0;whiteSpace=wrap;html=1;" vertex="1" parent="WIyWlLk6GJQsqaUBKTNV-1">
          <mxGeometry x="176" y="668" width="130" height="42" as="geometry" />
        </mxCell>
        <mxCell id="rb9BaqX8tFNNaCbTfsH7-20" value="" style="rounded=0;whiteSpace=wrap;html=1;" vertex="1" parent="WIyWlLk6GJQsqaUBKTNV-1">
          <mxGeometry x="970" y="-22.5" width="300" height="132.5" as="geometry" />
        </mxCell>
        <mxCell id="rb9BaqX8tFNNaCbTfsH7-21" value="/townactivities/GetBhaRuns" style="rounded=0;whiteSpace=wrap;html=1;" vertex="1" parent="WIyWlLk6GJQsqaUBKTNV-1">
          <mxGeometry x="1065" y="57.5" width="160" height="25" as="geometry" />
        </mxCell>
        <mxCell id="rb9BaqX8tFNNaCbTfsH7-22" value="Core.Service.DrillingTrajectory-1" style="rounded=0;whiteSpace=wrap;html=1;" vertex="1" parent="WIyWlLk6GJQsqaUBKTNV-1">
          <mxGeometry x="970" y="143" width="300" height="110" as="geometry" />
        </mxCell>
        <mxCell id="rb9BaqX8tFNNaCbTfsH7-23" value="/trajectory/getgeomagneticruninformation" style="rounded=0;whiteSpace=wrap;html=1;" vertex="1" parent="WIyWlLk6GJQsqaUBKTNV-1">
          <mxGeometry x="1010" y="205" width="260" height="30" as="geometry" />
        </mxCell>
        <mxCell id="rb9BaqX8tFNNaCbTfsH7-25" value="" style="rounded=0;whiteSpace=wrap;html=1;" vertex="1" parent="WIyWlLk6GJQsqaUBKTNV-1">
          <mxGeometry x="1330" y="253" width="250" height="327" as="geometry" />
        </mxCell>
        <mxCell id="rb9BaqX8tFNNaCbTfsH7-24" value="Core.Service.DrillingProgram-2" style="rounded=0;whiteSpace=wrap;html=1;" vertex="1" parent="WIyWlLk6GJQsqaUBKTNV-1">
          <mxGeometry x="1355.5" y="340" width="199" height="100" as="geometry" />
        </mxCell>
        <mxCell id="rb9BaqX8tFNNaCbTfsH7-26" value="&lt;h1 style=&quot;margin-top: 0px;&quot;&gt;Get DDP&lt;/h1&gt;" style="text;html=1;whiteSpace=wrap;overflow=hidden;rounded=0;" vertex="1" parent="WIyWlLk6GJQsqaUBKTNV-1">
          <mxGeometry x="1347" y="276" width="142" height="40" as="geometry" />
        </mxCell>
        <mxCell id="rb9BaqX8tFNNaCbTfsH7-27" value="Helios.Service.File-1" style="rounded=0;whiteSpace=wrap;html=1;" vertex="1" parent="WIyWlLk6GJQsqaUBKTNV-1">
          <mxGeometry x="1355.5" y="463" width="199" height="60" as="geometry" />
        </mxCell>
        <mxCell id="rb9BaqX8tFNNaCbTfsH7-28" value="Core.Service.WellboreGeometry-2" style="rounded=0;whiteSpace=wrap;html=1;" vertex="1" parent="WIyWlLk6GJQsqaUBKTNV-1">
          <mxGeometry x="981" y="370" width="278" height="155" as="geometry" />
        </mxCell>
        <mxCell id="rb9BaqX8tFNNaCbTfsH7-29" value="/graphql&lt;div&gt;query WellboreGeometryQuery&lt;br&gt;&lt;/div&gt;" style="rounded=0;whiteSpace=wrap;html=1;" vertex="1" parent="WIyWlLk6GJQsqaUBKTNV-1">
          <mxGeometry x="1025" y="465" width="190" height="30" as="geometry" />
        </mxCell>
        <mxCell id="rb9BaqX8tFNNaCbTfsH7-30" value="/steering/GetSteeringSurveys" style="rounded=0;whiteSpace=wrap;html=1;" vertex="1" parent="WIyWlLk6GJQsqaUBKTNV-1">
          <mxGeometry x="727.5" y="740" width="184" height="20" as="geometry" />
        </mxCell>
        <mxCell id="rb9BaqX8tFNNaCbTfsH7-53" style="edgeStyle=orthogonalEdgeStyle;rounded=0;orthogonalLoop=1;jettySize=auto;html=1;exitX=0;exitY=1;exitDx=0;exitDy=0;entryX=1;entryY=0.5;entryDx=0;entryDy=0;" edge="1" parent="WIyWlLk6GJQsqaUBKTNV-1" source="rb9BaqX8tFNNaCbTfsH7-31" target="rb9BaqX8tFNNaCbTfsH7-16">
          <mxGeometry relative="1" as="geometry" />
        </mxCell>
        <mxCell id="rb9BaqX8tFNNaCbTfsH7-31" value="Slb.Planck.Steering.Engine.Library" style="rounded=0;whiteSpace=wrap;html=1;" vertex="1" parent="WIyWlLk6GJQsqaUBKTNV-1">
          <mxGeometry x="560" y="230" width="240" height="200" as="geometry" />
        </mxCell>
        <mxCell id="rb9BaqX8tFNNaCbTfsH7-32" value="GetAntiCollisionDetailReport" style="rounded=0;whiteSpace=wrap;html=1;" vertex="1" parent="WIyWlLk6GJQsqaUBKTNV-1">
          <mxGeometry x="590" y="360" width="160" height="30" as="geometry" />
        </mxCell>
        <mxCell id="rb9BaqX8tFNNaCbTfsH7-33" value="/createmagneticscanreport" style="rounded=0;whiteSpace=wrap;html=1;" vertex="1" parent="WIyWlLk6GJQsqaUBKTNV-1">
          <mxGeometry x="725" y="790" width="193" height="20" as="geometry" />
        </mxCell>
        <mxCell id="rb9BaqX8tFNNaCbTfsH7-38" value="" style="edgeStyle=orthogonalEdgeStyle;rounded=0;orthogonalLoop=1;jettySize=auto;html=1;" edge="1" parent="WIyWlLk6GJQsqaUBKTNV-1" source="rb9BaqX8tFNNaCbTfsH7-35" target="rb9BaqX8tFNNaCbTfsH7-11">
          <mxGeometry relative="1" as="geometry" />
        </mxCell>
        <mxCell id="rb9BaqX8tFNNaCbTfsH7-35" value="RO.Service.SteeringAdvisor-1" style="text;html=1;align=center;verticalAlign=middle;whiteSpace=wrap;rounded=0;" vertex="1" parent="WIyWlLk6GJQsqaUBKTNV-1">
          <mxGeometry x="758" y="620" width="60" height="30" as="geometry" />
        </mxCell>
        <mxCell id="rb9BaqX8tFNNaCbTfsH7-39" value="" style="endArrow=classic;html=1;rounded=0;entryX=0.163;entryY=0.027;entryDx=0;entryDy=0;exitX=0.75;exitY=1;exitDx=0;exitDy=0;entryPerimeter=0;" edge="1" parent="WIyWlLk6GJQsqaUBKTNV-1" source="rb9BaqX8tFNNaCbTfsH7-31" target="rb9BaqX8tFNNaCbTfsH7-10">
          <mxGeometry width="50" height="50" relative="1" as="geometry">
            <mxPoint x="600" y="580" as="sourcePoint" />
            <mxPoint x="650" y="530" as="targetPoint" />
          </mxGeometry>
        </mxCell>
        <mxCell id="rb9BaqX8tFNNaCbTfsH7-40" value="" style="endArrow=classic;html=1;rounded=0;entryX=0;entryY=1;entryDx=0;entryDy=0;" edge="1" parent="WIyWlLk6GJQsqaUBKTNV-1" target="rb9BaqX8tFNNaCbTfsH7-33">
          <mxGeometry width="50" height="50" relative="1" as="geometry">
            <mxPoint x="400" y="320" as="sourcePoint" />
            <mxPoint x="540" y="450" as="targetPoint" />
            <Array as="points">
              <mxPoint x="400" y="480" />
              <mxPoint x="400" y="810" />
            </Array>
          </mxGeometry>
        </mxCell>
        <mxCell id="rb9BaqX8tFNNaCbTfsH7-42" value="Core.Service.DrillingActivities-1" style="text;html=1;align=center;verticalAlign=middle;whiteSpace=wrap;rounded=0;" vertex="1" parent="WIyWlLk6GJQsqaUBKTNV-1">
          <mxGeometry x="1040" y="5" width="190" height="30" as="geometry" />
        </mxCell>
        <mxCell id="rb9BaqX8tFNNaCbTfsH7-43" value="" style="endArrow=classic;html=1;rounded=0;exitX=1;exitY=0.6;exitDx=0;exitDy=0;exitPerimeter=0;" edge="1" parent="WIyWlLk6GJQsqaUBKTNV-1" source="rb9BaqX8tFNNaCbTfsH7-31">
          <mxGeometry width="50" height="50" relative="1" as="geometry">
            <mxPoint x="1170" y="310" as="sourcePoint" />
            <mxPoint x="1330" y="350" as="targetPoint" />
            <Array as="points">
              <mxPoint x="1170" y="350" />
            </Array>
          </mxGeometry>
        </mxCell>
        <mxCell id="rb9BaqX8tFNNaCbTfsH7-44" value="" style="endArrow=classic;html=1;rounded=0;exitX=1;exitY=0.6;exitDx=0;exitDy=0;exitPerimeter=0;entryX=0;entryY=0.5;entryDx=0;entryDy=0;" edge="1" parent="WIyWlLk6GJQsqaUBKTNV-1" source="rb9BaqX8tFNNaCbTfsH7-31" target="rb9BaqX8tFNNaCbTfsH7-20">
          <mxGeometry width="50" height="50" relative="1" as="geometry">
            <mxPoint x="810" y="360" as="sourcePoint" />
            <mxPoint x="1340" y="360" as="targetPoint" />
            <Array as="points" />
          </mxGeometry>
        </mxCell>
        <mxCell id="rb9BaqX8tFNNaCbTfsH7-45" value="" style="endArrow=classic;html=1;rounded=0;exitX=0.983;exitY=0.631;exitDx=0;exitDy=0;exitPerimeter=0;entryX=-0.012;entryY=0.632;entryDx=0;entryDy=0;entryPerimeter=0;" edge="1" parent="WIyWlLk6GJQsqaUBKTNV-1" source="rb9BaqX8tFNNaCbTfsH7-31" target="rb9BaqX8tFNNaCbTfsH7-22">
          <mxGeometry width="50" height="50" relative="1" as="geometry">
            <mxPoint x="810" y="360" as="sourcePoint" />
            <mxPoint x="980" y="54" as="targetPoint" />
            <Array as="points" />
          </mxGeometry>
        </mxCell>
        <mxCell id="rb9BaqX8tFNNaCbTfsH7-46" value="" style="endArrow=classic;html=1;rounded=0;entryX=0;entryY=0.5;entryDx=0;entryDy=0;" edge="1" parent="WIyWlLk6GJQsqaUBKTNV-1" target="rb9BaqX8tFNNaCbTfsH7-14">
          <mxGeometry width="50" height="50" relative="1" as="geometry">
            <mxPoint x="800" y="350" as="sourcePoint" />
            <mxPoint x="976" y="223" as="targetPoint" />
            <Array as="points" />
          </mxGeometry>
        </mxCell>
        <mxCell id="rb9BaqX8tFNNaCbTfsH7-47" value="" style="endArrow=classic;html=1;rounded=0;entryX=0;entryY=0.5;entryDx=0;entryDy=0;" edge="1" parent="WIyWlLk6GJQsqaUBKTNV-1" target="rb9BaqX8tFNNaCbTfsH7-28">
          <mxGeometry width="50" height="50" relative="1" as="geometry">
            <mxPoint x="800" y="350" as="sourcePoint" />
            <mxPoint x="990" y="638" as="targetPoint" />
            <Array as="points" />
          </mxGeometry>
        </mxCell>
        <mxCell id="rb9BaqX8tFNNaCbTfsH7-51" value="Service.Delivarable" style="text;html=1;align=center;verticalAlign=middle;whiteSpace=wrap;rounded=0;" vertex="1" parent="WIyWlLk6GJQsqaUBKTNV-1">
          <mxGeometry x="202" y="540" width="60" height="30" as="geometry" />
        </mxCell>
      </root>
    </mxGraphModel>
  </diagram>
</mxfile>
